TAMBÉM SOMOS IRMÃOS

Categorias: Longa-metragem / Sonoro / Ficção

Material original: 35mm, BP, 85min, 2330m, 24q

Data e local de produção:

Ano: 1949
País: Brasil
Cidade: Rio de Janeiro
Estado: DF


Sinopse:

Dois irmãos negros, Renato e Moleque Miro (ou simplesmente Miro) viveram a infância na casa de Sr. Requião, que também adotou duas crianças brancas, Marta e o pequeno Hélio. As limitações aos negros se acentuaram ao fim da infância, transformando-se em verdadeiras humilhações. Renato a tudo se submete, porque ama Marta em segredo e quer terminar seus estudos de advocacia. Ao contrário de Miro que, sem pretensões e estílmulo, abandona o lar e vai viver no morro entre marginais. Renato, compositor nas horas vagas, também nutre grande ternura pelo irmão branco caçula Hélio, que interpreta suas canções. Morando na mesma favela que Miro, Renato se forma em Direito e tem como primeira causa a defesa do próprio irmão, já um marginal detido. 

Gênero: Drama

Termos descritores: Discriminação; Negro; Crime

Descritores secundários: Homicídio; Justiça

Termos geográficos: Rio de Janeiro - DF

Prêmios:

Associação Brasileira de Cronistas Cinematográficos, 1949, RJ, de Melhor Ator para Grande Otelo 
Revista A Scena Muda, 1949, RJ, de Melhor Atriz para Vera Nunes.

Produção: Atlântida Empresa Cinematográfica do Brasil S.A.

Distribuição: U.C.B. - União Cinematográfica Brasileira S.A.

Argumento: Azevedo, Alinor

Roteiro: Azevedo, Alinor

Direção: Burle, José Carlos

Assistência de direção: Machado, Roberto

Direção de fotografia: Brasil, Edgar

Cinegrafista: Dusek, George

Direção de som: Coutinho, Jorge

Montagem: Noya, Waldemar

Cenografia: Lounine, Nicolau

Direção musical: Panicalli, Lírio

Música de: Burle, José Carlos

Canção

Título: Era uma vez; 
Autor da canção: Burle, José Carlos; 

Título: Quase nada; 
Autor da canção: Burle, José Carlos; 

Título: Vida não vale nada, A; 
Autor da canção: Otelo, Grande e Almeidinha; 

Título: Amapola
Autor da canção: Lacalle

Identidades/Elenco: 

Otelo, Grande (Moleque Miro)
Camargo, Aguinaldo (Renato)
Nunes, Vera (Marta)
Dória, Jorge (Walter Mendes)
Oliveira, Sérgio de (Sr. Requião)
Rayol, Agnaldo (Hélio)
Valadão, Jece (Garçom)
Souza, Ruth de (Prostituta)
Iorio, Atila (Delegado)
Goulart, Jorge
Murad, Aniz
Labella, Aurora
Coutinho, Belci Moraes
Andrade, Carlos Navarro de
Lemos, Cory
Tarcitano, Esther
Santos, Francisca Souza dos
Paraná, Joziel
Pinto, Jayme
Boa Vista, João
Silva, João
Fernandes, João Santos
Lopes Filho, José M.
Gonçalves, Marina
Magalhães, Nelson
Paladino, Neuza Eloisa
Oliveira, Otávio M.
Celestino, Paulo
Barros, Renato Pereira de
Sinatti, Sophia M.
Augusta, Leonora
Teixeira, Ilena


Informações extraídas do site: http://www.cinemateca.gov.br


INFORMAÇÕES DO RELEASE


TV-Rip

Format                           : AVI
Format/Info                      : Audio Video Interleave
File size                        : 800 MiB
Duration                         : 1h 28mn
Overall bit rate                 : 1 265 Kbps
Writing application              : VirtualDubMod 1.5.4.1 (build 2178/release)
Writing library                  : VirtualDubMod build 2178/release

Video
ID                               : 0
Format                           : MPEG-4 Visual
Format profile                   : Advanced Simple@L5
Format settings, BVOP            : 1
Format settings, QPel            : No
Format settings, GMC             : No warppoints
Format settings, Matrix          : Custom
Codec ID                         : XVID
Codec ID/Hint                    : XviD
Duration                         : 1h 28mn
Bit rate                         : 1 001 Kbps
Width                            : 528 pixels
Height                           : 400 pixels
Display aspect ratio             : 4:3
Frame rate                       : 29.970 fps
Color space                      : YUV
Chroma subsampling               : 4:2:0
Bit depth                        : 8 bits
Scan type                        : Progressive
Compression mode                 : Lossy
Bits/(Pixel*Frame)               : 0.158
Stream size                      : 633 MiB (79%)
Writing library                  : XviD 1.2.1 (UTC 2008-12-04)

Audio
ID                               : 1
Format                           : AC-3
Format/Info                      : Audio Coding 3
Mode extension                   : CM (complete main)
Codec ID                         : 2000
Duration                         : 1h 28mn
Bit rate mode                    : Constant
Bit rate                         : 256 Kbps
Channel(s)                       : 2 channels
Channel positions                : Front: L R
Sampling rate                    : 48.0 KHz
Bit depth                        : 16 bits
Compression mode                 : Lossy
Delay relative to video          : 29ms
Stream size                      : 162 MiB (20%)
Alignment                        : Split accross interleaves
Interleave, duration             : 96 ms (2.88 video frames)
Interleave, preload duration     : 96 ms